<?xml version="1.0" encoding="UTF-8" standalone="no"?>
<svg
   version="1.1"
   viewBox="0 0 903.52356 349.18347"
   fill="none"
   stroke="none"
   stroke-linecap="square"
   stroke-miterlimit="10"
   id="svg727"
   sodipodi:docname="change-of-exclusion-and-inclusion.svg"
   width="903.52356"
   height="349.18347"
   inkscape:version="1.1.2 (08b2f3d93c, 2022-04-05)"
   xmlns:inkscape="http://www.inkscape.org/namespaces/inkscape"
   xmlns:sodipodi="http://sodipodi.sourceforge.net/DTD/sodipodi-0.dtd"
   xmlns="http://www.w3.org/2000/svg"
   xmlns:svg="http://www.w3.org/2000/svg">
  <defs
     id="defs731" />
  <sodipodi:namedview
     id="namedview729"
     pagecolor="#ffffff"
     bordercolor="#666666"
     borderopacity="1.0"
     inkscape:pageshadow="2"
     inkscape:pageopacity="0.0"
     inkscape:pagecheckerboard="0"
     showgrid="false"
     inkscape:zoom="1.125"
     inkscape:cx="435.11111"
     inkscape:cy="245.77778"
     inkscape:window-width="1920"
     inkscape:window-height="1003"
     inkscape:window-x="0"
     inkscape:window-y="40"
     inkscape:window-maximized="1"
     inkscape:current-layer="g725"
     width="903.52356px" />
  <clipPath
     id="p.0">
    <path
       d="M 0,0 H 960 V 720 H 0 Z"
       clip-rule="nonzero"
       id="path684" />
  </clipPath>
  <g
     clip-path="url(#p.0)"
     id="g725"
     transform="translate(-44.815002,-114.29921)">
    <path
       fill="#000000"
       fill-opacity="0"
       d="M 0,0 H 960 V 720 H 0 Z"
       fill-rule="evenodd"
       id="path687" />
    <g
       id="g767"
       transform="translate(42,36)">
      <path
         fill="#000000"
         fill-opacity="0"
         d="m 783.4488,180.43307 c -173.8031,0 -260.7047,40.27559 -347.60626,80.55118 -86.90158,40.2756 -173.80316,80.55118 -347.60632,80.55118"
         fill-rule="evenodd"
         id="path689" />
      <path
         stroke="#000000"
         stroke-width="3"
         stroke-linejoin="round"
         stroke-linecap="butt"
         d="m 765.44946,180.58229 -1.97552,0.0327 c -1.30585,0.0241 -2.60663,0.0506 -3.90235,0.0794 -2.59131,0.0576 -5.16247,0.1246 -7.71374,0.20081 -10.20496,0.30481 -20.09168,0.75714 -29.6814,1.3471 -19.1795,1.17997 -37.17084,2.91054 -54.1438,5.11312 -33.94592,4.40513 -63.81836,10.69819 -90.9751,18.24988 -54.31348,15.10334 -97.76425,35.24113 -141.21503,55.37893 -43.45081,20.13779 -86.90158,40.27561 -141.21506,55.37894 -27.15674,7.55167 -57.02917,13.84473 -90.9751,18.24988 -16.97295,2.20257 -34.96429,3.93313 -54.14375,5.1131 -9.58974,0.58999 -19.47649,1.04229 -29.68148,1.3471 -2.55124,0.0762 -5.12238,0.14319 -7.71374,0.20084 -1.29569,0.0288 -2.59641,0.0552 -3.90225,0.0793 l -1.97555,0.0328"
         fill-rule="evenodd"
         id="path691" />
      <path
         fill="#000000"
         stroke="#000000"
         stroke-width="3"
         stroke-linecap="butt"
         d="m 765.49054,185.53731 13.57269,-5.06789 -13.65484,-4.84216 z"
         fill-rule="evenodd"
         id="path693" />
      <path
         fill="#000000"
         stroke="#000000"
         stroke-width="3"
         stroke-linecap="butt"
         d="m 106.19453,336.43118 -13.572746,5.0679 13.654896,4.84216 z"
         fill-rule="evenodd"
         id="path695" />
      <path
         fill="#000000"
         fill-opacity="0"
         d="M 34.986877,352.68765 H 274.16797 V 394.7034 H 34.986877 Z"
         fill-rule="evenodd"
         id="path697" />
      <path
         fill="#000000"
         d="m 44.815002,379.60767 2.78125,-13.35938 h 4.03125 q 1.453125,0 2.21875,0.21875 1.09375,0.28125 1.859375,1 0.78125,0.71875 1.171875,1.8125 0.390625,1.07813 0.390625,2.4375 0,1.60938 -0.484375,2.9375 -0.484375,1.3125 -1.28125,2.32813 -0.78125,1 -1.640625,1.57812 -0.859375,0.5625 -2.046875,0.84375 -0.890625,0.20313 -2.1875,0.20313 z m 2.109375,-1.51563 h 2.109375 q 1.4375,0 2.546875,-0.26562 0.6875,-0.15625 1.171875,-0.48438 0.65625,-0.40625 1.1875,-1.07812 0.6875,-0.89063 1.09375,-2.03125 0.421875,-1.14063 0.421875,-2.60938 0,-1.60937 -0.5625,-2.48437 -0.5625,-0.875 -1.4375,-1.15625 -0.65625,-0.20313 -2.015625,-0.20313 h -2.359375 z m 18.254196,-1.76562 1.609375,0.15625 q -0.34375,1.1875 -1.59375,2.26562 -1.234375,1.07813 -2.96875,1.07813 -1.0625,0 -1.96875,-0.5 -0.890625,-0.5 -1.359375,-1.4375 -0.46875,-0.95313 -0.46875,-2.15625 0,-1.59375 0.734375,-3.07813 0.734375,-1.48437 1.890625,-2.20312 1.171875,-0.73438 2.53125,-0.73438 1.734375,0 2.765625,1.07813 1.03125,1.0625 1.03125,2.92187 0,0.71875 -0.125,1.46875 h -7.125 q -0.04687,0.28125 -0.04687,0.5 0,1.35938 0.625,2.07813 0.625,0.71875 1.53125,0.71875 0.84375,0 1.65625,-0.54688 0.828125,-0.5625 1.28125,-1.60937 z m -4.78125,-2.40625 h 5.421875 q 0.01563,-0.25 0.01563,-0.35938 0,-1.23437 -0.625,-1.89062 -0.625,-0.67188 -1.59375,-0.67188 -1.0625,0 -1.9375,0.73438 -0.859375,0.71875 -1.28125,2.1875 z m 14.735092,2.15625 1.65625,0.17187 q -0.625,1.8125 -1.765625,2.70313 -1.140625,0.875 -2.609375,0.875 -1.578125,0 -2.5625,-1.01563 -0.96875,-1.03125 -0.96875,-2.85937 0,-1.57813 0.625,-3.10938 0.640625,-1.53125 1.796875,-2.32812 1.171875,-0.79688 2.6875,-0.79688 1.546875,0 2.453125,0.875 0.921875,0.875 0.921875,2.32813 l -1.625,0.10937 q -0.01563,-0.92187 -0.546875,-1.4375 -0.515625,-0.51562 -1.359375,-0.51562 -1,0 -1.734375,0.625 -0.71875,0.625 -1.140625,1.90625 -0.40625,1.28125 -0.40625,2.46875 0,1.23437 0.546875,1.85937 0.546875,0.60938 1.34375,0.60938 0.796875,0 1.53125,-0.60938 0.734375,-0.60937 1.15625,-1.85937 z m 2.65625,3.53125 2.015625,-9.67188 h 1.453125 l -0.40625,1.96875 q 0.75,-1.10937 1.453125,-1.64062 0.71875,-0.54688 1.46875,-0.54688 0.5,0 1.21875,0.35938 l -0.671875,1.53125 q -0.4375,-0.3125 -0.9375,-0.3125 -0.875,0 -1.78125,0.96875 -0.90625,0.95312 -1.4375,3.46875 l -0.8125,3.875 z m 13.306427,-3.28125 1.609375,0.15625 q -0.34375,1.1875 -1.59375,2.26562 -1.234375,1.07813 -2.96875,1.07813 -1.0625,0 -1.96875,-0.5 -0.890625,-0.5 -1.359375,-1.4375 -0.46875,-0.95313 -0.46875,-2.15625 0,-1.59375 0.734375,-3.07813 0.734375,-1.48437 1.890625,-2.20312 1.171875,-0.73438 2.53125,-0.73438 1.734375,0 2.765625,1.07813 1.03125,1.0625 1.03125,2.92187 0,0.71875 -0.125,1.46875 h -7.125 q -0.04687,0.28125 -0.04687,0.5 0,1.35938 0.625,2.07813 0.625,0.71875 1.53125,0.71875 0.84375,0 1.65625,-0.54688 0.828125,-0.5625 1.28125,-1.60937 z m -4.78125,-2.40625 h 5.421875 q 0.01563,-0.25 0.01563,-0.35938 0,-1.23437 -0.625,-1.89062 -0.625,-0.67188 -1.59375,-0.67188 -1.0625,0 -1.9375,0.73438 -0.859375,0.71875 -1.28125,2.1875 z m 14.578838,4.48437 q -0.85937,0.73438 -1.656246,1.07813 -0.78125,0.34375 -1.6875,0.34375 -1.34375,0 -2.171875,-0.78125 -0.8125,-0.79688 -0.8125,-2.03125 0,-0.79688 0.375,-1.42188 0.375,-0.625 0.984375,-1 0.609375,-0.39062 1.484375,-0.54687 0.5625,-0.10938 2.109375,-0.17188 1.562496,-0.0625 2.234376,-0.32812 0.1875,-0.67188 0.1875,-1.125 0,-0.57813 -0.42188,-0.90625 -0.5625,-0.45313 -1.671871,-0.45313 -1.03125,0 -1.703125,0.46875 -0.65625,0.45313 -0.953125,1.29688 l -1.671875,-0.14063 q 0.515625,-1.4375 1.609375,-2.20312 1.109375,-0.76563 2.796875,-0.76563 1.796876,0 2.843746,0.85938 0.79688,0.625 0.79688,1.65625 0,0.76562 -0.21875,1.79687 l -0.53125,2.40625 q -0.26563,1.14063 -0.26563,1.85938 0,0.45312 0.20313,1.3125 h -1.67188 q -0.125,-0.46875 -0.1875,-1.20313 z m 0.60938,-3.70312 q -0.34375,0.14062 -0.75,0.21875 -0.39063,0.0625 -1.312501,0.15625 -1.4375,0.125 -2.03125,0.32812 -0.59375,0.1875 -0.90625,0.625 -0.296875,0.42188 -0.296875,0.9375 0,0.6875 0.484375,1.14063 0.484375,0.4375 1.359375,0.4375 0.828125,0 1.578125,-0.42188 0.750001,-0.4375 1.187501,-1.20312 0.4375,-0.78125 0.6875,-2.21875 z m 3.40697,1.59375 1.64062,-0.0937 q 0,0.70312 0.21875,1.21875 0.21875,0.5 0.79688,0.8125 0.59375,0.3125 1.375,0.3125 1.09375,0 1.64062,-0.4375 0.54688,-0.4375 0.54688,-1.01563 0,-0.4375 -0.32813,-0.8125 -0.32812,-0.39062 -1.64062,-0.95312 -1.3125,-0.5625 -1.67188,-0.78125 -0.60937,-0.375 -0.92187,-0.875 -0.3125,-0.51563 -0.3125,-1.17188 0,-1.14062 0.90625,-1.95312 0.92187,-0.82813 2.5625,-0.82813 1.82812,0 2.76562,0.84375 0.95313,0.84375 1,2.21875 l -1.60937,0.10938 q -0.0469,-0.875 -0.625,-1.39063 -0.57813,-0.51562 -1.65625,-0.51562 -0.84375,0 -1.32813,0.40625 -0.46875,0.39062 -0.46875,0.84375 0,0.45312 0.40625,0.79687 0.28125,0.23438 1.42188,0.73438 1.89062,0.8125 2.375,1.28125 0.78125,0.76562 0.78125,1.84375 0,0.71875 -0.4375,1.42187 -0.4375,0.6875 -1.34375,1.10938 -0.90625,0.40625 -2.14063,0.40625 -1.67187,0 -2.84375,-0.82813 -1.1875,-0.82812 -1.10937,-2.70312 z m 11.5,-8.17188 0.40625,-1.875 h 1.625 l -0.39063,1.875 z m -2.39063,11.48438 2.01563,-9.67188 h 1.65625 l -2.03125,9.67188 z m 4.20732,0 2.01563,-9.67188 h 1.5 l -0.35938,1.6875 q 0.96875,-1 1.8125,-1.45312 0.85938,-0.45313 1.73438,-0.45313 1.1875,0 1.84375,0.64063 0.67187,0.625 0.67187,1.70312 0,0.53125 -0.23437,1.6875 l -1.23438,5.85938 h -1.64062 l 1.28125,-6.125 q 0.1875,-0.89063 0.1875,-1.32813 0,-0.48437 -0.32813,-0.78125 -0.32812,-0.29687 -0.95312,-0.29687 -1.28125,0 -2.26563,0.90625 -0.98437,0.90625 -1.45312,3.125 l -0.9375,4.5 z m 10.28197,0.875 1.67187,0.15625 q -0.0312,0.5625 0.125,0.84375 0.15625,0.28125 0.5,0.4375 0.4375,0.20312 1.15625,0.20312 1.48438,0 2.14063,-0.78125 0.4375,-0.51562 0.79687,-2.25 l 0.17188,-0.78125 q -1.29688,1.29688 -2.73438,1.29688 -1.46875,0 -2.46875,-1.07813 -0.98437,-1.07812 -0.98437,-3.0625 0,-1.625 0.78125,-2.98437 0.78125,-1.375 1.85937,-2.0625 1.07813,-0.70313 2.20313,-0.70313 1.90625,0 2.9375,1.79688 l 0.32812,-1.57813 h 1.51563 l -1.95313,9.32813 q -0.3125,1.54687 -0.84375,2.40625 -0.51562,0.85937 -1.4375,1.32812 -0.92187,0.48438 -2.14062,0.48438 -1.15625,0 -2,-0.3125 -0.84375,-0.29688 -1.26563,-0.875 -0.40625,-0.57813 -0.40625,-1.32813 0,-0.21875 0.0469,-0.48437 z m 2.0625,-5.15625 q 0,1 0.1875,1.5 0.26562,0.6875 0.76562,1.0625 0.51563,0.375 1.14063,0.375 0.8125,0 1.60937,-0.5625 0.79688,-0.57813 1.29688,-1.76563 0.5,-1.20312 0.5,-2.28125 0,-1.20312 -0.67188,-1.90625 -0.65625,-0.70312 -1.625,-0.70312 -0.60937,0 -1.17187,0.32812 -0.5625,0.3125 -1.04688,0.98438 -0.48437,0.65625 -0.73437,1.57812 -0.25,0.92188 -0.25,1.39063 z"
         fill-rule="nonzero"
         id="path699" />
      <path
         fill="#000000"
         d="m 144.76984,368.13892 v -1.89063 h 1.64062 v 1.89063 z m 0,11.46875 v -9.67188 h 1.64062 v 9.67188 z m 4.14482,0 v -9.67188 h 1.46875 v 1.375 q 1.0625,-1.59375 3.07813,-1.59375 0.875,0 1.60937,0.3125 0.73438,0.3125 1.09375,0.82813 0.375,0.5 0.51563,1.20312 0.0937,0.45313 0.0937,1.59375 v 5.95313 h -1.64063 v -5.89063 q 0,-1 -0.20312,-1.48437 -0.1875,-0.5 -0.67188,-0.79688 -0.48437,-0.29687 -1.14062,-0.29687 -1.04688,0 -1.8125,0.67187 -0.75,0.65625 -0.75,2.51563 v 5.28125 z m 16.68822,-3.54688 1.60937,0.21875 q -0.26562,1.65625 -1.35937,2.60938 -1.07813,0.9375 -2.67188,0.9375 -1.98437,0 -3.1875,-1.29688 -1.20312,-1.29687 -1.20312,-3.71875 0,-1.57812 0.51562,-2.75 0.51563,-1.17187 1.57813,-1.75 1.0625,-0.59375 2.3125,-0.59375 1.57812,0 2.57812,0.79688 1,0.79687 1.28125,2.26562 l -1.59375,0.23438 q -0.23437,-0.96875 -0.8125,-1.45313 -0.57812,-0.5 -1.39062,-0.5 -1.23438,0 -2.01563,0.89063 -0.78125,0.89062 -0.78125,2.8125 0,1.95312 0.75,2.84375 0.75,0.875 1.95313,0.875 0.96875,0 1.60937,-0.59375 0.65625,-0.59375 0.82813,-1.82813 z m 2.96875,3.54688 v -13.35938 h 1.64062 v 13.35938 z m 10.51982,0 v -1.42188 q -1.125,1.64063 -3.0625,1.64063 -0.85938,0 -1.60938,-0.32813 -0.73437,-0.32812 -1.09375,-0.82812 -0.35937,-0.5 -0.5,-1.21875 -0.10937,-0.46875 -0.10937,-1.53125 v -5.98438 h 1.64062 v 5.35938 q 0,1.28125 0.10938,1.73437 0.15625,0.64063 0.65625,1.01563 0.5,0.375 1.23437,0.375 0.73438,0 1.375,-0.375 0.65625,-0.39063 0.92188,-1.03125 0.26562,-0.65625 0.26562,-1.89063 v -5.1875 h 1.64063 v 9.67188 z m 3.39134,-2.89063 1.625,-0.25 q 0.125,0.96875 0.75,1.5 0.625,0.51563 1.75,0.51563 1.125,0 1.67188,-0.45313 0.54687,-0.46875 0.54687,-1.09375 0,-0.54687 -0.48437,-0.875 -0.32813,-0.21875 -1.67188,-0.54687 -1.8125,-0.46875 -2.51562,-0.79688 -0.6875,-0.32812 -1.04688,-0.90625 -0.35937,-0.59375 -0.35937,-1.3125 0,-0.64062 0.29687,-1.1875 0.29688,-0.5625 0.8125,-0.92187 0.375,-0.28125 1.03125,-0.46875 0.67188,-0.20313 1.42188,-0.20313 1.14062,0 2,0.32813 0.85937,0.32812 1.26562,0.89062 0.42188,0.5625 0.57813,1.5 l -1.60938,0.21875 q -0.10937,-0.75 -0.64062,-1.17187 -0.51563,-0.42188 -1.46875,-0.42188 -1.14063,0 -1.625,0.375 -0.46875,0.375 -0.46875,0.875 0,0.3125 0.1875,0.57813 0.20312,0.26562 0.64062,0.4375 0.23438,0.0937 1.4375,0.42187 1.75,0.45313 2.4375,0.75 0.6875,0.29688 1.07813,0.85938 0.39062,0.5625 0.39062,1.40625 0,0.82812 -0.48437,1.54687 -0.46875,0.71875 -1.375,1.125 -0.90625,0.39063 -2.04688,0.39063 -1.875,0 -2.875,-0.78125 -0.98437,-0.78125 -1.25,-2.32813 z m 9.98438,-8.57812 v -1.89063 h 1.64062 v 1.89063 z m 0,11.46875 v -9.67188 h 1.64062 v 9.67188 z m 3.53544,-4.84375 q 0,-2.6875 1.48438,-3.96875 1.25,-1.07813 3.04687,-1.07813 2,0 3.26563,1.3125 1.26562,1.29688 1.26562,3.60938 0,1.85937 -0.5625,2.9375 -0.5625,1.0625 -1.64062,1.65625 -1.0625,0.59375 -2.32813,0.59375 -2.03125,0 -3.28125,-1.29688 -1.25,-1.3125 -1.25,-3.76562 z m 1.6875,0 q 0,1.85937 0.79688,2.79687 0.8125,0.92188 2.04687,0.92188 1.21875,0 2.03125,-0.92188 0.8125,-0.9375 0.8125,-2.84375 0,-1.79687 -0.8125,-2.71875 -0.8125,-0.92187 -2.03125,-0.92187 -1.23437,0 -2.04687,0.92187 -0.79688,0.90625 -0.79688,2.76563 z m 9.29759,4.84375 v -9.67188 h 1.46875 v 1.375 q 1.0625,-1.59375 3.07813,-1.59375 0.875,0 1.60937,0.3125 0.73438,0.3125 1.09375,0.82813 0.375,0.5 0.51563,1.20312 0.0937,0.45313 0.0937,1.59375 v 5.95313 h -1.64063 v -5.89063 q 0,-1 -0.20312,-1.48437 -0.1875,-0.5 -0.67188,-0.79688 -0.48437,-0.29687 -1.14062,-0.29687 -1.04688,0 -1.8125,0.67187 -0.75,0.65625 -0.75,2.51563 v 5.28125 z"
         fill-rule="nonzero"
         id="path701" />
      <path
         fill="#000000"
         fill-opacity="0"
         d="m 208.37007,228.6693 h 185.98427 v 64.62993 H 208.37007 Z"
         fill-rule="evenodd"
         id="path703" />
      <path
         fill="#000000"
         d="m 218.7607,255.5893 v -13.35938 h 2.65625 l 3.15625,9.45313 q 0.4375,1.32812 0.64063,1.98437 0.23437,-0.73437 0.70312,-2.14062 l 3.20313,-9.29688 h 2.375 v 13.35938 h -1.70313 v -11.17188 l -3.875,11.17188 h -1.59375 l -3.85937,-11.375 v 11.375 z m 21.69705,-1.1875 q -0.92187,0.76562 -1.76562,1.09375 -0.82813,0.3125 -1.79688,0.3125 -1.59375,0 -2.45312,-0.78125 -0.85938,-0.78125 -0.85938,-1.98438 0,-0.71875 0.32813,-1.29687 0.32812,-0.59375 0.84375,-0.9375 0.53125,-0.35938 1.1875,-0.54688 0.46875,-0.125 1.45312,-0.25 1.98438,-0.23437 2.92188,-0.5625 0.0156,-0.34375 0.0156,-0.42187 0,-1 -0.46875,-1.42188 -0.625,-0.54687 -1.875,-0.54687 -1.15625,0 -1.70312,0.40625 -0.54688,0.40625 -0.8125,1.42187 l -1.60938,-0.21875 q 0.21875,-1.01562 0.71875,-1.64062 0.5,-0.64063 1.45313,-0.98438 0.95312,-0.34375 2.1875,-0.34375 1.25,0 2.01562,0.29688 0.78125,0.28125 1.14063,0.73437 0.375,0.4375 0.51562,1.10938 0.0781,0.42187 0.0781,1.51562 v 2.1875 q 0,2.28125 0.10937,2.89063 0.10938,0.59375 0.40625,1.15625 h -1.70312 q -0.26563,-0.51563 -0.32813,-1.1875 z m -0.14062,-3.67188 q -0.89063,0.375 -2.67188,0.625 -1.01562,0.14063 -1.4375,0.32813 -0.42187,0.1875 -0.65625,0.53125 -0.21875,0.34375 -0.21875,0.78125 0,0.65625 0.5,1.09375 0.5,0.4375 1.45313,0.4375 0.9375,0 1.67187,-0.40625 0.75,-0.42188 1.09375,-1.14063 0.26563,-0.5625 0.26563,-1.64062 z m 4.20384,-6.60937 v -1.89063 h 1.64062 v 1.89063 z m 0,11.46875 v -9.67188 h 1.64062 v 9.67188 z m 4.14482,0 v -9.67188 h 1.46875 v 1.375 q 1.0625,-1.59375 3.07813,-1.59375 0.875,0 1.60937,0.3125 0.73438,0.3125 1.09375,0.82813 0.37502,0.5 0.51564,1.20312 0.0937,0.45313 0.0937,1.59375 v 5.95313 h -1.64064 v -5.89063 q 0,-1 -0.20313,-1.48437 -0.1875,-0.5 -0.67187,-0.79688 -0.48438,-0.29687 -1.14063,-0.29687 -1.04687,0 -1.8125,0.67187 -0.75,0.65625 -0.75,2.51563 v 5.28125 z m 13.95384,-1.46875 0.23438,1.45312 q -0.6875,0.14063 -1.23438,0.14063 -0.89062,0 -1.39062,-0.28125 -0.48438,-0.28125 -0.6875,-0.73438 -0.20313,-0.46875 -0.20313,-1.9375 v -5.57812 h -1.20312 v -1.26563 h 1.20312 v -2.39062 l 1.625,-0.98438 v 3.375 h 1.65625 v 1.26563 h -1.65625 v 5.67187 q 0,0.6875 0.0781,0.89063 0.0937,0.20312 0.28125,0.32812 0.20312,0.10938 0.57812,0.10938 0.26563,0 0.71875,-0.0625 z m 7.9177,0.28125 q -0.92188,0.76562 -1.76563,1.09375 -0.82812,0.3125 -1.79687,0.3125 -1.59375,0 -2.45313,-0.78125 -0.85937,-0.78125 -0.85937,-1.98438 0,-0.71875 0.32812,-1.29687 0.32813,-0.59375 0.84375,-0.9375 0.53125,-0.35938 1.1875,-0.54688 0.46875,-0.125 1.45313,-0.25 1.98437,-0.23437 2.92187,-0.5625 0.0156,-0.34375 0.0156,-0.42187 0,-1 -0.46875,-1.42188 -0.625,-0.54687 -1.875,-0.54687 -1.15625,0 -1.70313,0.40625 -0.54687,0.40625 -0.8125,1.42187 l -1.60937,-0.21875 q 0.21875,-1.01562 0.71875,-1.64062 0.5,-0.64063 1.45312,-0.98438 0.95313,-0.34375 2.1875,-0.34375 1.25,0 2.01563,0.29688 0.78125,0.28125 1.14062,0.73437 0.375,0.4375 0.51563,1.10938 0.0781,0.42187 0.0781,1.51562 v 2.1875 q 0,2.28125 0.10938,2.89063 0.10937,0.59375 0.40625,1.15625 h -1.70313 q -0.26562,-0.51563 -0.32812,-1.1875 z m -0.14063,-3.67188 q -0.89062,0.375 -2.67187,0.625 -1.01563,0.14063 -1.4375,0.32813 -0.42188,0.1875 -0.65625,0.53125 -0.21875,0.34375 -0.21875,0.78125 0,0.65625 0.5,1.09375 0.5,0.4375 1.45312,0.4375 0.9375,0 1.67188,-0.40625 0.75,-0.42188 1.09375,-1.14063 0.26562,-0.5625 0.26562,-1.64062 z m 4.20383,-6.60937 v -1.89063 h 1.64062 v 1.89063 z m 0,11.46875 v -9.67188 h 1.64062 v 9.67188 z m 4.14483,0 v -9.67188 h 1.46875 v 1.375 q 1.0625,-1.59375 3.07813,-1.59375 0.875,0 1.60937,0.3125 0.73438,0.3125 1.09375,0.82813 0.375,0.5 0.51563,1.20312 0.0937,0.45313 0.0937,1.59375 v 5.95313 h -1.64063 v -5.89063 q 0,-1 -0.20312,-1.48437 -0.1875,-0.5 -0.67188,-0.79688 -0.48437,-0.29687 -1.14062,-0.29687 -1.04688,0 -1.8125,0.67187 -0.75,0.65625 -0.75,2.51563 v 5.28125 z m 10.37571,-11.46875 v -1.89063 h 1.64062 v 1.89063 z m 0,11.46875 v -9.67188 h 1.64062 v 9.67188 z m 4.14483,0 v -9.67188 h 1.46875 v 1.375 q 1.0625,-1.59375 3.07813,-1.59375 0.875,0 1.60937,0.3125 0.73438,0.3125 1.09375,0.82813 0.375,0.5 0.51563,1.20312 0.0937,0.45313 0.0937,1.59375 v 5.95313 h -1.64063 v -5.89063 q 0,-1 -0.20312,-1.48437 -0.1875,-0.5 -0.67188,-0.79688 -0.48437,-0.29687 -1.14062,-0.29687 -1.04688,0 -1.8125,0.67187 -0.75,0.65625 -0.75,2.51563 v 5.28125 z m 10.0632,0.79687 1.59375,0.23438 q 0.10938,0.75 0.5625,1.07812 0.60938,0.45313 1.67188,0.45313 1.14062,0 1.75,-0.45313 0.625,-0.45312 0.84375,-1.26562 0.125,-0.5 0.10937,-2.10938 -1.0625,1.26563 -2.67187,1.26563 -2,0 -3.09375,-1.4375 -1.09375,-1.4375 -1.09375,-3.45313 0,-1.39062 0.5,-2.5625 0.51562,-1.17187 1.45312,-1.79687 0.95313,-0.64063 2.25,-0.64063 1.70313,0 2.8125,1.375 v -1.15625 h 1.51563 v 8.35938 q 0,2.26562 -0.46875,3.20312 -0.45313,0.9375 -1.45313,1.48438 -0.98437,0.54687 -2.45312,0.54687 -1.71875,0 -2.79688,-0.78125 -1.0625,-0.76562 -1.03125,-2.34375 z m 1.35938,-5.8125 q 0,1.90625 0.75,2.78125 0.76562,0.875 1.90625,0.875 1.125,0 1.89062,-0.85937 0.76563,-0.875 0.76563,-2.73438 0,-1.78125 -0.79688,-2.67187 -0.78125,-0.90625 -1.89062,-0.90625 -1.09375,0 -1.85938,0.89062 -0.76562,0.875 -0.76562,2.625 z m 21.13715,1.90625 1.6875,0.20313 q -0.40625,1.48437 -1.48438,2.3125 -1.07812,0.8125 -2.76562,0.8125 -2.125,0 -3.375,-1.29688 -1.23438,-1.3125 -1.23438,-3.67187 0,-2.45313 1.25,-3.79688 1.26563,-1.34375 3.26563,-1.34375 1.9375,0 3.15625,1.32813 1.23437,1.3125 1.23437,3.70312 0,0.15625 0,0.4375 h -7.21875 q 0.0937,1.59375 0.90625,2.45313 0.8125,0.84375 2.01563,0.84375 0.90625,0 1.54687,-0.46875 0.64063,-0.48438 1.01563,-1.51563 z m -5.39063,-2.65625 h 5.40625 q -0.10937,-1.21875 -0.625,-1.82812 -0.78125,-0.95313 -2.03125,-0.95313 -1.125,0 -1.90625,0.76563 -0.76562,0.75 -0.84375,2.01562 z m 8.04761,5.76563 3.53125,-5.03125 -3.26563,-4.64063 h 2.04688 l 1.48437,2.26563 q 0.42188,0.64062 0.67188,1.07812 0.40625,-0.59375 0.73437,-1.0625 l 1.64063,-2.28125 h 1.95312 l -3.34375,4.54688 3.59375,5.125 h -2.01562 l -1.98438,-3 -0.51562,-0.8125 -2.54688,3.8125 z m 10.42187,-11.46875 v -1.89063 h 1.64063 v 1.89063 z m 0,11.46875 v -9.67188 h 1.64063 v 9.67188 z m 3.48856,-2.89063 1.625,-0.25 q 0.125,0.96875 0.75,1.5 0.625,0.51563 1.75,0.51563 1.125,0 1.67187,-0.45313 0.54688,-0.46875 0.54688,-1.09375 0,-0.54687 -0.48438,-0.875 -0.32812,-0.21875 -1.67187,-0.54687 -1.8125,-0.46875 -2.51563,-0.79688 -0.6875,-0.32812 -1.04687,-0.90625 -0.35938,-0.59375 -0.35938,-1.3125 0,-0.64062 0.29688,-1.1875 0.29687,-0.5625 0.8125,-0.92187 0.375,-0.28125 1.03125,-0.46875 0.67187,-0.20313 1.42187,-0.20313 1.14063,0 2,0.32813 0.85938,0.32812 1.26563,0.89062 0.42187,0.5625 0.57812,1.5 l -1.60937,0.21875 q -0.10938,-0.75 -0.64063,-1.17187 -0.51562,-0.42188 -1.46875,-0.42188 -1.14062,0 -1.625,0.375 -0.46875,0.375 -0.46875,0.875 0,0.3125 0.1875,0.57813 0.20313,0.26562 0.64063,0.4375 0.23437,0.0937 1.4375,0.42187 1.75,0.45313 2.4375,0.75 0.6875,0.29688 1.07812,0.85938 0.39063,0.5625 0.39063,1.40625 0,0.82812 -0.48438,1.54687 -0.46875,0.71875 -1.375,1.125 -0.90625,0.39063 -2.04687,0.39063 -1.875,0 -2.875,-0.78125 -0.98438,-0.78125 -1.25,-2.32813 z m 13.5625,1.42188 0.23437,1.45312 q -0.6875,0.14063 -1.23437,0.14063 -0.89063,0 -1.39063,-0.28125 -0.48437,-0.28125 -0.6875,-0.73438 -0.20312,-0.46875 -0.20312,-1.9375 v -5.57812 h -1.20313 v -1.26563 h 1.20313 v -2.39062 l 1.625,-0.98438 v 3.375 h 1.65625 v 1.26563 h -1.65625 v 5.67187 q 0,0.6875 0.0781,0.89063 0.0937,0.20312 0.28125,0.32812 0.20313,0.10938 0.57813,0.10938 0.26562,0 0.71875,-0.0625 z m 1.60519,-10 v -1.89063 h 1.64063 v 1.89063 z m 0,11.46875 v -9.67188 h 1.64063 v 9.67188 z m 4.14481,0 v -9.67188 h 1.46875 v 1.375 q 1.0625,-1.59375 3.07812,-1.59375 0.875,0 1.60938,0.3125 0.73437,0.3125 1.09375,0.82813 0.375,0.5 0.51562,1.20312 0.0937,0.45313 0.0937,1.59375 v 5.95313 h -1.64062 v -5.89063 q 0,-1 -0.20313,-1.48437 -0.1875,-0.5 -0.67187,-0.79688 -0.48438,-0.29687 -1.14063,-0.29687 -1.04687,0 -1.8125,0.67187 -0.75,0.65625 -0.75,2.51563 v 5.28125 z m 10.06323,0.79687 1.59375,0.23438 q 0.10938,0.75 0.5625,1.07812 0.60938,0.45313 1.67188,0.45313 1.14062,0 1.75,-0.45313 0.625,-0.45312 0.84375,-1.26562 0.125,-0.5 0.10937,-2.10938 -1.0625,1.26563 -2.67187,1.26563 -2,0 -3.09375,-1.4375 -1.09375,-1.4375 -1.09375,-3.45313 0,-1.39062 0.5,-2.5625 0.51562,-1.17187 1.45312,-1.79687 0.95313,-0.64063 2.25,-0.64063 1.70313,0 2.8125,1.375 v -1.15625 h 1.51563 v 8.35938 q 0,2.26562 -0.46875,3.20312 -0.45313,0.9375 -1.45313,1.48438 -0.98437,0.54687 -2.45312,0.54687 -1.71875,0 -2.79688,-0.78125 -1.0625,-0.76562 -1.03125,-2.34375 z m 1.35938,-5.8125 q 0,1.90625 0.75,2.78125 0.76562,0.875 1.90625,0.875 1.125,0 1.89062,-0.85937 0.76563,-0.875 0.76563,-2.73438 0,-1.78125 -0.79688,-2.67187 -0.78125,-0.90625 -1.89062,-0.90625 -1.09375,0 -1.85938,0.89062 -0.76562,0.875 -0.76562,2.625 z"
         fill-rule="nonzero"
         id="path705" />
      <path
         fill="#000000"
         d="m 218.55757,277.9893 v -13.35937 h 1.64062 v 13.35937 z m 10.8167,-3.10937 1.6875,0.20312 q -0.40625,1.48438 -1.48438,2.3125 -1.07812,0.8125 -2.76562,0.8125 -2.125,0 -3.375,-1.29687 -1.23438,-1.3125 -1.23438,-3.67188 0,-2.45312 1.25,-3.79687 1.26563,-1.34375 3.26563,-1.34375 1.9375,0 3.15625,1.32812 1.23437,1.3125 1.23437,3.70313 0,0.15625 0,0.4375 h -7.21875 q 0.0937,1.59375 0.90625,2.45312 0.8125,0.84375 2.01563,0.84375 0.90625,0 1.54687,-0.46875 0.64063,-0.48437 1.01563,-1.51562 z m -5.39063,-2.65625 h 5.40625 q -0.10937,-1.21875 -0.625,-1.82813 -0.78125,-0.95312 -2.03125,-0.95312 -1.125,0 -1.90625,0.76562 -0.76562,0.75 -0.84375,2.01563 z m 11.82884,5.76562 -3.6875,-9.67187 h 1.73438 l 2.07812,5.79687 q 0.32813,0.9375 0.625,1.9375 0.20313,-0.76562 0.60938,-1.82812 l 2.14062,-5.90625 h 1.6875 l -3.65625,9.67187 z m 13.26563,-3.10937 1.6875,0.20312 q -0.40625,1.48438 -1.48438,2.3125 -1.07812,0.8125 -2.76562,0.8125 -2.125,0 -3.375,-1.29687 -1.23438,-1.3125 -1.23438,-3.67188 0,-2.45312 1.25,-3.79687 1.26563,-1.34375 3.26563,-1.34375 1.9375,0 3.15625,1.32812 1.23437,1.3125 1.23437,3.70313 0,0.15625 0,0.4375 h -7.21875 q 0.0937,1.59375 0.90625,2.45312 0.8125,0.84375 2.01563,0.84375 0.90625,0 1.54687,-0.46875 0.64063,-0.48437 1.01563,-1.51562 z m -5.39063,-2.65625 h 5.40625 q -0.10937,-1.21875 -0.625,-1.82813 -0.78125,-0.95312 -2.03125,-0.95312 -1.125,0 -1.90625,0.76562 -0.76562,0.75 -0.84375,2.01563 z m 9.09447,5.76562 v -13.35937 h 1.64063 v 13.35937 z m 3.53546,-2.89062 1.625,-0.25 q 0.125,0.96875 0.75,1.5 0.625,0.51562 1.75,0.51562 1.125,0 1.67188,-0.45312 0.54687,-0.46875 0.54687,-1.09375 0,-0.54688 -0.48437,-0.875 -0.32813,-0.21875 -1.67188,-0.54688 -1.8125,-0.46875 -2.51562,-0.79687 -0.6875,-0.32813 -1.04688,-0.90625 -0.35937,-0.59375 -0.35937,-1.3125 0,-0.64063 0.29687,-1.1875 0.29688,-0.5625 0.8125,-0.92188 0.375,-0.28125 1.03125,-0.46875 0.67188,-0.20312 1.42188,-0.20312 1.14062,0 2,0.32812 0.85937,0.32813 1.26562,0.89063 0.42188,0.5625 0.57813,1.5 l -1.60938,0.21875 q -0.10937,-0.75 -0.64062,-1.17188 -0.51563,-0.42187 -1.46875,-0.42187 -1.14063,0 -1.625,0.375 -0.46875,0.375 -0.46875,0.875 0,0.3125 0.1875,0.57812 0.20312,0.26563 0.64062,0.4375 0.23438,0.0937 1.4375,0.42188 1.75,0.45312 2.4375,0.75 0.6875,0.29687 1.07813,0.85937 0.39062,0.5625 0.39062,1.40625 0,0.82813 -0.48437,1.54688 -0.46875,0.71875 -1.375,1.125 -0.90625,0.39062 -2.04688,0.39062 -1.875,0 -2.875,-0.78125 -0.98437,-0.78125 -1.25,-2.32812 z m 14.55829,-1.95313 q 0,-2.6875 1.48438,-3.96875 1.25,-1.07812 3.04687,-1.07812 2,0 3.26563,1.3125 1.26562,1.29687 1.26562,3.60937 0,1.85938 -0.5625,2.9375 -0.5625,1.0625 -1.64062,1.65625 -1.0625,0.59375 -2.32813,0.59375 -2.03125,0 -3.28125,-1.29687 -1.25,-1.3125 -1.25,-3.76563 z m 1.6875,0 q 0,1.85938 0.79688,2.79688 0.8125,0.92187 2.04687,0.92187 1.21875,0 2.03125,-0.92187 0.8125,-0.9375 0.8125,-2.84375 0,-1.79688 -0.8125,-2.71875 -0.8125,-0.92188 -2.03125,-0.92188 -1.23437,0 -2.04687,0.92188 -0.79688,0.90625 -0.79688,2.76562 z m 9.68823,4.84375 v -8.40625 h -1.45312 v -1.26562 h 1.45312 v -1.03125 q 0,-0.96875 0.17188,-1.45313 0.23437,-0.64062 0.82812,-1.03125 0.59375,-0.39062 1.67188,-0.39062 0.6875,0 1.53125,0.15625 l -0.25,1.4375 q -0.5,-0.0937 -0.95313,-0.0937 -0.75,0 -1.0625,0.32812 -0.3125,0.3125 -0.3125,1.1875 v 0.89063 h 1.89063 v 1.26562 h -1.89063 v 8.40625 z"
         fill-rule="nonzero"
         id="path707" />
      <path
         fill="#000000"
         d="m 298.7118,274.70804 1.60937,0.15625 q -0.34375,1.1875 -1.59375,2.26562 -1.23437,1.07813 -2.96875,1.07813 -1.0625,0 -1.96875,-0.5 -0.89062,-0.5 -1.35937,-1.4375 -0.46875,-0.95313 -0.46875,-2.15625 0,-1.59375 0.73437,-3.07813 0.73438,-1.48437 1.89063,-2.20312 1.17187,-0.73438 2.53125,-0.73438 1.73437,0 2.76562,1.07813 1.03125,1.0625 1.03125,2.92187 0,0.71875 -0.125,1.46875 h -7.125 q -0.0469,0.28125 -0.0469,0.5 0,1.35938 0.625,2.07813 0.625,0.71875 1.53125,0.71875 0.84375,0 1.65625,-0.54688 0.82812,-0.5625 1.28125,-1.60937 z m -4.78125,-2.40625 h 5.42187 q 0.0156,-0.25 0.0156,-0.35938 0,-1.23437 -0.625,-1.89062 -0.625,-0.67188 -1.59375,-0.67188 -1.0625,0 -1.9375,0.73438 -0.85938,0.71875 -1.28125,2.1875 z m 7.40695,5.6875 4.21875,-4.90625 -2.42187,-4.76563 h 1.82812 l 0.8125,1.71875 q 0.45313,0.96875 0.82813,1.84375 l 2.78125,-3.5625 H 311.4 l -4.0625,4.89063 2.4375,4.78125 h -1.8125 l -0.96875,-1.96875 q -0.3125,-0.625 -0.70312,-1.5625 l -2.875,3.53125 z m 16.65625,-3.53125 1.65625,0.17187 q -0.625,1.8125 -1.76562,2.70313 -1.14063,0.875 -2.60938,0.875 -1.57812,0 -2.5625,-1.01563 -0.96875,-1.03125 -0.96875,-2.85937 0,-1.57813 0.625,-3.10938 0.64063,-1.53125 1.79688,-2.32812 1.17187,-0.79688 2.6875,-0.79688 1.54687,0 2.45312,0.875 0.92188,0.875 0.92188,2.32813 l -1.625,0.10937 q -0.0156,-0.92187 -0.54688,-1.4375 -0.51562,-0.51562 -1.35937,-0.51562 -1,0 -1.73438,0.625 -0.71875,0.625 -1.14062,1.90625 -0.40625,1.28125 -0.40625,2.46875 0,1.23437 0.54687,1.85937 0.54688,0.60938 1.34375,0.60938 0.79688,0 1.53125,-0.60938 0.73438,-0.60937 1.15625,-1.85937 z m 2.51563,3.53125 2.79687,-13.35938 h 1.64063 l -2.78125,13.35938 z m 10.87921,-1.75 q -1.73438,1.96875 -3.5625,1.96875 -1.10938,0 -1.79688,-0.64063 -0.6875,-0.64062 -0.6875,-1.57812 0,-0.60938 0.29688,-2.09375 l 1.17187,-5.57813 h 1.65625 l -1.29687,6.1875 q -0.17188,0.76563 -0.17188,1.20313 0,0.54687 0.32813,0.85937 0.34375,0.29688 0.98437,0.29688 0.70313,0 1.35938,-0.32813 0.65625,-0.34375 1.125,-0.92187 0.48437,-0.57813 0.79687,-1.35938 0.1875,-0.5 0.45313,-1.76562 l 0.875,-4.17188 h 1.65625 l -2.03125,9.67188 h -1.51563 z m 3.9382,-1.5625 1.64062,-0.0937 q 0,0.70312 0.21875,1.21875 0.21875,0.5 0.79688,0.8125 0.59375,0.3125 1.375,0.3125 1.09375,0 1.64062,-0.4375 0.54688,-0.4375 0.54688,-1.01563 0,-0.4375 -0.32813,-0.8125 -0.32812,-0.39062 -1.64062,-0.95312 -1.3125,-0.5625 -1.67188,-0.78125 -0.60937,-0.375 -0.92187,-0.875 -0.3125,-0.51563 -0.3125,-1.17188 0,-1.14062 0.90625,-1.95312 0.92187,-0.82813 2.5625,-0.82813 1.82812,0 2.76562,0.84375 0.95313,0.84375 1,2.21875 l -1.60937,0.10938 q -0.0469,-0.875 -0.625,-1.39063 -0.57813,-0.51562 -1.65625,-0.51562 -0.84375,0 -1.32813,0.40625 -0.46875,0.39062 -0.46875,0.84375 0,0.45312 0.40625,0.79687 0.28125,0.23438 1.42188,0.73438 1.89062,0.8125 2.375,1.28125 0.78125,0.76562 0.78125,1.84375 0,0.71875 -0.4375,1.42187 -0.4375,0.6875 -1.34375,1.10938 -0.90625,0.40625 -2.14063,0.40625 -1.67187,0 -2.84375,-0.82813 -1.1875,-0.82812 -1.10937,-2.70312 z m 11.5,-8.17188 0.40625,-1.875 h 1.625 l -0.39063,1.875 z m -2.39063,11.48438 2.01563,-9.67188 h 1.65625 l -2.03125,9.67188 z m 4.48859,-3.67188 q 0,-2.82812 1.67188,-4.6875 1.375,-1.53125 3.60937,-1.53125 1.75,0 2.8125,1.09375 1.07813,1.09375 1.07813,2.95313 0,1.65625 -0.67188,3.09375 -0.67187,1.4375 -1.92187,2.20312 -1.25,0.76563 -2.625,0.76563 -1.125,0 -2.04688,-0.48438 -0.92187,-0.48437 -1.42187,-1.35937 -0.48438,-0.89063 -0.48438,-2.04688 z m 1.65625,-0.15625 q 0,1.35938 0.65625,2.0625 0.65625,0.70313 1.65625,0.70313 0.53125,0 1.04688,-0.20313 0.53125,-0.21875 0.96875,-0.65625 0.45312,-0.4375 0.76562,-1 0.3125,-0.5625 0.5,-1.20312 0.28125,-0.90625 0.28125,-1.73438 0,-1.3125 -0.65625,-2.03125 -0.65625,-0.73437 -1.65625,-0.73437 -0.78125,0 -1.42187,0.375 -0.625,0.375 -1.14063,1.09375 -0.51562,0.70312 -0.76562,1.64062 -0.23438,0.9375 -0.23438,1.6875 z m 8.4382,3.82813 2.01563,-9.67188 h 1.5 l -0.35938,1.6875 q 0.96875,-1 1.8125,-1.45312 0.85938,-0.45313 1.73438,-0.45313 1.1875,0 1.84375,0.64063 0.67187,0.625 0.67187,1.70312 0,0.53125 -0.23437,1.6875 l -1.23438,5.85938 h -1.64062 l 1.28125,-6.125 q 0.1875,-0.89063 0.1875,-1.32813 0,-0.48437 -0.32813,-0.78125 -0.32812,-0.29687 -0.95312,-0.29687 -1.28125,0 -2.26563,0.90625 -0.98437,0.90625 -1.45312,3.125 l -0.9375,4.5 z"
         fill-rule="nonzero"
         id="path709" />
      <path
         fill="#000000"
         fill-opacity="0"
         d="m 496.3701,228.6693 h 185.98422 v 64.62993 H 496.3701 Z"
         fill-rule="evenodd"
         id="path711" />
      <path
         fill="#000000"
         d="m 506.7607,255.5893 v -13.35938 h 2.65625 l 3.15622,9.45313 q 0.4375,1.32812 0.64062,1.98437 0.23438,-0.73437 0.70313,-2.14062 l 3.20312,-9.29688 h 2.375 v 13.35938 h -1.70312 v -11.17188 l -3.875,11.17188 h -1.59375 l -3.85935,-11.375 v 11.375 z m 21.69705,-1.1875 q -0.92187,0.76562 -1.76562,1.09375 -0.82813,0.3125 -1.79688,0.3125 -1.59375,0 -2.45312,-0.78125 -0.85938,-0.78125 -0.85938,-1.98438 0,-0.71875 0.32813,-1.29687 0.32812,-0.59375 0.84375,-0.9375 0.53125,-0.35938 1.1875,-0.54688 0.46875,-0.125 1.45312,-0.25 1.98438,-0.23437 2.92188,-0.5625 0.0156,-0.34375 0.0156,-0.42187 0,-1 -0.46875,-1.42188 -0.625,-0.54687 -1.875,-0.54687 -1.15625,0 -1.70312,0.40625 -0.54688,0.40625 -0.8125,1.42187 l -1.60938,-0.21875 q 0.21875,-1.01562 0.71875,-1.64062 0.5,-0.64063 1.45313,-0.98438 0.95312,-0.34375 2.1875,-0.34375 1.25,0 2.01562,0.29688 0.78125,0.28125 1.14063,0.73437 0.375,0.4375 0.51562,1.10938 0.0781,0.42187 0.0781,1.51562 v 2.1875 q 0,2.28125 0.10937,2.89063 0.10938,0.59375 0.40625,1.15625 h -1.70312 q -0.26563,-0.51563 -0.32813,-1.1875 z m -0.14062,-3.67188 q -0.89063,0.375 -2.67188,0.625 -1.01562,0.14063 -1.4375,0.32813 -0.42187,0.1875 -0.65625,0.53125 -0.21875,0.34375 -0.21875,0.78125 0,0.65625 0.5,1.09375 0.5,0.4375 1.45313,0.4375 0.9375,0 1.67187,-0.40625 0.75,-0.42188 1.09375,-1.14063 0.26563,-0.5625 0.26563,-1.64062 z m 4.20385,-6.60937 v -1.89063 h 1.64063 v 1.89063 z m 0,11.46875 v -9.67188 h 1.64063 v 9.67188 z m 4.14478,0 v -9.67188 h 1.46875 v 1.375 q 1.0625,-1.59375 3.07812,-1.59375 0.875,0 1.60938,0.3125 0.73437,0.3125 1.09375,0.82813 0.375,0.5 0.51562,1.20312 0.0937,0.45313 0.0937,1.59375 v 5.95313 h -1.64062 v -5.89063 q 0,-1 -0.20313,-1.48437 -0.1875,-0.5 -0.67187,-0.79688 -0.48438,-0.29687 -1.14063,-0.29687 -1.04687,0 -1.8125,0.67187 -0.75,0.65625 -0.75,2.51563 v 5.28125 z m 13.95386,-1.46875 0.23437,1.45312 q -0.6875,0.14063 -1.23437,0.14063 -0.89063,0 -1.39063,-0.28125 -0.48437,-0.28125 -0.6875,-0.73438 -0.20312,-0.46875 -0.20312,-1.9375 v -5.57812 h -1.20313 v -1.26563 h 1.20313 v -2.39062 l 1.625,-0.98438 v 3.375 h 1.65625 v 1.26563 h -1.65625 v 5.67187 q 0,0.6875 0.0781,0.89063 0.0937,0.20312 0.28125,0.32812 0.20313,0.10938 0.57813,0.10938 0.26562,0 0.71875,-0.0625 z m 7.91766,0.28125 q -0.92187,0.76562 -1.76562,1.09375 -0.82813,0.3125 -1.79688,0.3125 -1.59375,0 -2.45312,-0.78125 -0.85938,-0.78125 -0.85938,-1.98438 0,-0.71875 0.32813,-1.29687 0.32812,-0.59375 0.84375,-0.9375 0.53125,-0.35938 1.1875,-0.54688 0.46875,-0.125 1.45312,-0.25 1.98438,-0.23437 2.92188,-0.5625 0.0156,-0.34375 0.0156,-0.42187 0,-1 -0.46875,-1.42188 -0.625,-0.54687 -1.875,-0.54687 -1.15625,0 -1.70312,0.40625 -0.54688,0.40625 -0.8125,1.42187 l -1.60938,-0.21875 q 0.21875,-1.01562 0.71875,-1.64062 0.5,-0.64063 1.45313,-0.98438 0.95312,-0.34375 2.1875,-0.34375 1.25,0 2.01562,0.29688 0.78125,0.28125 1.14063,0.73437 0.375,0.4375 0.51562,1.10938 0.0781,0.42187 0.0781,1.51562 v 2.1875 q 0,2.28125 0.10937,2.89063 0.10938,0.59375 0.40625,1.15625 h -1.70312 q -0.26563,-0.51563 -0.32813,-1.1875 z m -0.14062,-3.67188 q -0.89063,0.375 -2.67188,0.625 -1.01562,0.14063 -1.4375,0.32813 -0.42187,0.1875 -0.65625,0.53125 -0.21875,0.34375 -0.21875,0.78125 0,0.65625 0.5,1.09375 0.5,0.4375 1.45313,0.4375 0.9375,0 1.67187,-0.40625 0.75,-0.42188 1.09375,-1.14063 0.26563,-0.5625 0.26563,-1.64062 z m 4.20385,-6.60937 v -1.89063 h 1.64063 v 1.89063 z m 0,11.46875 v -9.67188 h 1.64063 v 9.67188 z m 4.14484,0 v -9.67188 h 1.46875 v 1.375 q 1.0625,-1.59375 3.07812,-1.59375 0.875,0 1.60938,0.3125 0.73437,0.3125 1.09375,0.82813 0.375,0.5 0.51562,1.20312 0.0937,0.45313 0.0937,1.59375 v 5.95313 h -1.64062 v -5.89063 q 0,-1 -0.20313,-1.48437 -0.1875,-0.5 -0.67187,-0.79688 -0.48438,-0.29687 -1.14063,-0.29687 -1.04687,0 -1.8125,0.67187 -0.75,0.65625 -0.75,2.51563 v 5.28125 z m 10.37573,-11.46875 v -1.89063 h 1.64063 v 1.89063 z m 0,11.46875 v -9.67188 h 1.64063 v 9.67188 z m 4.14478,0 v -9.67188 h 1.46875 v 1.375 q 1.0625,-1.59375 3.07812,-1.59375 0.875,0 1.60938,0.3125 0.73437,0.3125 1.09375,0.82813 0.375,0.5 0.51562,1.20312 0.0937,0.45313 0.0937,1.59375 v 5.95313 h -1.64062 v -5.89063 q 0,-1 -0.20313,-1.48437 -0.1875,-0.5 -0.67187,-0.79688 -0.48438,-0.29687 -1.14063,-0.29687 -1.04687,0 -1.8125,0.67187 -0.75,0.65625 -0.75,2.51563 v 5.28125 z m 10.06323,0.79687 1.59375,0.23438 q 0.10937,0.75 0.5625,1.07812 0.60937,0.45313 1.67187,0.45313 1.14063,0 1.75,-0.45313 0.625,-0.45312 0.84375,-1.26562 0.125,-0.5 0.10938,-2.10938 -1.0625,1.26563 -2.67188,1.26563 -2,0 -3.09375,-1.4375 -1.09375,-1.4375 -1.09375,-3.45313 0,-1.39062 0.5,-2.5625 0.51563,-1.17187 1.45313,-1.79687 0.95312,-0.64063 2.25,-0.64063 1.70312,0 2.8125,1.375 v -1.15625 h 1.51562 v 8.35938 q 0,2.26562 -0.46875,3.20312 -0.45312,0.9375 -1.45312,1.48438 -0.98438,0.54687 -2.45313,0.54687 -1.71875,0 -2.79687,-0.78125 -1.0625,-0.76562 -1.03125,-2.34375 z m 1.35937,-5.8125 q 0,1.90625 0.75,2.78125 0.76563,0.875 1.90625,0.875 1.125,0 1.89063,-0.85937 0.76562,-0.875 0.76562,-2.73438 0,-1.78125 -0.79687,-2.67187 -0.78125,-0.90625 -1.89063,-0.90625 -1.09375,0 -1.85937,0.89062 -0.76563,0.875 -0.76563,2.625 z m 21.13715,1.90625 1.6875,0.20313 q -0.40625,1.48437 -1.48438,2.3125 -1.07812,0.8125 -2.76562,0.8125 -2.125,0 -3.375,-1.29688 -1.23438,-1.3125 -1.23438,-3.67187 0,-2.45313 1.25,-3.79688 1.26563,-1.34375 3.26563,-1.34375 1.9375,0 3.15625,1.32813 1.23437,1.3125 1.23437,3.70312 0,0.15625 0,0.4375 h -7.21875 q 0.0937,1.59375 0.90625,2.45313 0.8125,0.84375 2.01563,0.84375 0.90625,0 1.54687,-0.46875 0.64063,-0.48438 1.01563,-1.51563 z m -5.39063,-2.65625 h 5.40625 q -0.10937,-1.21875 -0.625,-1.82812 -0.78125,-0.95313 -2.03125,-0.95313 -1.125,0 -1.90625,0.76563 -0.76562,0.75 -0.84375,2.01562 z m 8.04761,5.76563 3.53125,-5.03125 -3.26562,-4.64063 h 2.04687 l 1.48438,2.26563 q 0.42187,0.64062 0.67187,1.07812 0.40625,-0.59375 0.73438,-1.0625 l 1.64062,-2.28125 h 1.95313 l -3.34375,4.54688 3.59375,5.125 h -2.01563 l -1.98437,-3 -0.51563,-0.8125 -2.54687,3.8125 z m 10.42188,-11.46875 v -1.89063 h 1.64062 v 1.89063 z m 0,11.46875 v -9.67188 h 1.64062 v 9.67188 z m 3.48858,-2.89063 1.625,-0.25 q 0.125,0.96875 0.75,1.5 0.625,0.51563 1.75,0.51563 1.125,0 1.67188,-0.45313 0.54687,-0.46875 0.54687,-1.09375 0,-0.54687 -0.48437,-0.875 -0.32813,-0.21875 -1.67188,-0.54687 -1.8125,-0.46875 -2.51562,-0.79688 -0.6875,-0.32812 -1.04688,-0.90625 -0.35937,-0.59375 -0.35937,-1.3125 0,-0.64062 0.29687,-1.1875 0.29688,-0.5625 0.8125,-0.92187 0.375,-0.28125 1.03125,-0.46875 0.67188,-0.20313 1.42188,-0.20313 1.14062,0 2,0.32813 0.85937,0.32812 1.26562,0.89062 0.42188,0.5625 0.57813,1.5 l -1.60938,0.21875 q -0.10937,-0.75 -0.64062,-1.17187 -0.51563,-0.42188 -1.46875,-0.42188 -1.14063,0 -1.625,0.375 -0.46875,0.375 -0.46875,0.875 0,0.3125 0.1875,0.57813 0.20312,0.26562 0.64062,0.4375 0.23438,0.0937 1.4375,0.42187 1.75,0.45313 2.4375,0.75 0.6875,0.29688 1.07813,0.85938 0.39062,0.5625 0.39062,1.40625 0,0.82812 -0.48437,1.54687 -0.46875,0.71875 -1.375,1.125 -0.90625,0.39063 -2.04688,0.39063 -1.875,0 -2.875,-0.78125 -0.98437,-0.78125 -1.25,-2.32813 z m 13.5625,1.42188 0.23438,1.45312 q -0.6875,0.14063 -1.23438,0.14063 -0.89062,0 -1.39062,-0.28125 -0.48438,-0.28125 -0.6875,-0.73438 -0.20313,-0.46875 -0.20313,-1.9375 v -5.57812 h -1.20312 v -1.26563 h 1.20312 v -2.39062 l 1.625,-0.98438 v 3.375 h 1.65625 v 1.26563 h -1.65625 v 5.67187 q 0,0.6875 0.0781,0.89063 0.0937,0.20312 0.28125,0.32812 0.20312,0.10938 0.57812,0.10938 0.26563,0 0.71875,-0.0625 z m 1.60517,-10 v -1.89063 h 1.64062 v 1.89063 z m 0,11.46875 v -9.67188 h 1.64062 v 9.67188 z m 4.14483,0 v -9.67188 h 1.46875 v 1.375 q 1.0625,-1.59375 3.07813,-1.59375 0.875,0 1.60937,0.3125 0.73438,0.3125 1.09375,0.82813 0.375,0.5 0.51563,1.20312 0.0937,0.45313 0.0937,1.59375 v 5.95313 h -1.64063 v -5.89063 q 0,-1 -0.20312,-1.48437 -0.1875,-0.5 -0.67188,-0.79688 -0.48437,-0.29687 -1.14062,-0.29687 -1.04688,0 -1.8125,0.67187 -0.75,0.65625 -0.75,2.51563 v 5.28125 z m 10.06317,0.79687 1.59375,0.23438 q 0.10938,0.75 0.5625,1.07812 0.60938,0.45313 1.67188,0.45313 1.14062,0 1.75,-0.45313 0.625,-0.45312 0.84375,-1.26562 0.125,-0.5 0.10937,-2.10938 -1.0625,1.26563 -2.67187,1.26563 -2,0 -3.09375,-1.4375 -1.09375,-1.4375 -1.09375,-3.45313 0,-1.39062 0.5,-2.5625 0.51562,-1.17187 1.45312,-1.79687 0.95313,-0.64063 2.25,-0.64063 1.70313,0 2.8125,1.375 v -1.15625 h 1.51563 v 8.35938 q 0,2.26562 -0.46875,3.20312 -0.45313,0.9375 -1.45313,1.48438 -0.98437,0.54687 -2.45312,0.54687 -1.71875,0 -2.79688,-0.78125 -1.0625,-0.76562 -1.03125,-2.34375 z m 1.35938,-5.8125 q 0,1.90625 0.75,2.78125 0.76562,0.875 1.90625,0.875 1.125,0 1.89062,-0.85937 0.76563,-0.875 0.76563,-2.73438 0,-1.78125 -0.79688,-2.67187 -0.78125,-0.90625 -1.89062,-0.90625 -1.09375,0 -1.85938,0.89062 -0.76562,0.875 -0.76562,2.625 z"
         fill-rule="nonzero"
         id="path713" />
      <path
         fill="#000000"
         d="m 506.5576,277.9893 v -13.35937 h 1.64062 v 13.35937 z m 10.81668,-3.10937 1.6875,0.20312 q -0.40625,1.48438 -1.48437,2.3125 -1.07813,0.8125 -2.76563,0.8125 -2.125,0 -3.375,-1.29687 -1.23437,-1.3125 -1.23437,-3.67188 0,-2.45312 1.25,-3.79687 1.26562,-1.34375 3.26562,-1.34375 1.9375,0 3.15625,1.32812 1.23438,1.3125 1.23438,3.70313 0,0.15625 0,0.4375 h -7.21875 q 0.0937,1.59375 0.90625,2.45312 0.8125,0.84375 2.01562,0.84375 0.90625,0 1.54688,-0.46875 0.64062,-0.48437 1.01562,-1.51562 z m -5.39062,-2.65625 h 5.40625 q -0.10938,-1.21875 -0.625,-1.82813 -0.78125,-0.95312 -2.03125,-0.95312 -1.125,0 -1.90625,0.76562 -0.76563,0.75 -0.84375,2.01563 z m 11.82885,5.76562 -3.6875,-9.67187 h 1.73438 l 2.07812,5.79687 q 0.32813,0.9375 0.625,1.9375 0.20313,-0.76562 0.60938,-1.82812 l 2.14062,-5.90625 h 1.6875 l -3.65625,9.67187 z m 13.26563,-3.10937 1.6875,0.20312 q -0.40625,1.48438 -1.48438,2.3125 -1.07812,0.8125 -2.76562,0.8125 -2.125,0 -3.375,-1.29687 -1.23438,-1.3125 -1.23438,-3.67188 0,-2.45312 1.25,-3.79687 1.26563,-1.34375 3.26563,-1.34375 1.9375,0 3.15625,1.32812 1.23437,1.3125 1.23437,3.70313 0,0.15625 0,0.4375 h -7.21875 q 0.0937,1.59375 0.90625,2.45312 0.8125,0.84375 2.01563,0.84375 0.90625,0 1.54687,-0.46875 0.64063,-0.48437 1.01563,-1.51562 z m -5.39063,-2.65625 h 5.40625 q -0.10937,-1.21875 -0.625,-1.82813 -0.78125,-0.95312 -2.03125,-0.95312 -1.125,0 -1.90625,0.76562 -0.76562,0.75 -0.84375,2.01563 z m 9.09448,5.76562 v -13.35937 h 1.64063 v 13.35937 z m 3.53541,-2.89062 1.625,-0.25 q 0.125,0.96875 0.75,1.5 0.625,0.51562 1.75,0.51562 1.125,0 1.67187,-0.45312 0.54688,-0.46875 0.54688,-1.09375 0,-0.54688 -0.48438,-0.875 -0.32812,-0.21875 -1.67187,-0.54688 -1.8125,-0.46875 -2.51563,-0.79687 -0.6875,-0.32813 -1.04687,-0.90625 -0.35938,-0.59375 -0.35938,-1.3125 0,-0.64063 0.29688,-1.1875 0.29687,-0.5625 0.8125,-0.92188 0.375,-0.28125 1.03125,-0.46875 0.67187,-0.20312 1.42187,-0.20312 1.14063,0 2,0.32812 0.85938,0.32813 1.26563,0.89063 0.42187,0.5625 0.57812,1.5 l -1.60937,0.21875 q -0.10938,-0.75 -0.64063,-1.17188 -0.51562,-0.42187 -1.46875,-0.42187 -1.14062,0 -1.625,0.375 -0.46875,0.375 -0.46875,0.875 0,0.3125 0.1875,0.57812 0.20313,0.26563 0.64063,0.4375 0.23437,0.0937 1.4375,0.42188 1.75,0.45312 2.4375,0.75 0.6875,0.29687 1.07812,0.85937 0.39063,0.5625 0.39063,1.40625 0,0.82813 -0.48438,1.54688 -0.46875,0.71875 -1.375,1.125 -0.90625,0.39062 -2.04687,0.39062 -1.875,0 -2.875,-0.78125 -0.98438,-0.78125 -1.25,-2.32812 z m 14.55835,-1.95313 q 0,-2.6875 1.48437,-3.96875 1.25,-1.07812 3.04688,-1.07812 2,0 3.26562,1.3125 1.26563,1.29687 1.26563,3.60937 0,1.85938 -0.5625,2.9375 -0.5625,1.0625 -1.64063,1.65625 -1.0625,0.59375 -2.32812,0.59375 -2.03125,0 -3.28125,-1.29687 -1.25,-1.3125 -1.25,-3.76563 z m 1.6875,0 q 0,1.85938 0.79687,2.79688 0.8125,0.92187 2.04688,0.92187 1.21875,0 2.03125,-0.92187 0.8125,-0.9375 0.8125,-2.84375 0,-1.79688 -0.8125,-2.71875 -0.8125,-0.92188 -2.03125,-0.92188 -1.23438,0 -2.04688,0.92188 -0.79687,0.90625 -0.79687,2.76562 z m 9.68817,4.84375 v -8.40625 h -1.45313 v -1.26562 h 1.45313 v -1.03125 q 0,-0.96875 0.17187,-1.45313 0.23438,-0.64062 0.82813,-1.03125 0.59375,-0.39062 1.67187,-0.39062 0.6875,0 1.53125,0.15625 l -0.25,1.4375 q -0.5,-0.0937 -0.95312,-0.0937 -0.75,0 -1.0625,0.32812 -0.3125,0.3125 -0.3125,1.1875 v 0.89063 h 1.89062 v 1.26562 h -1.89062 v 8.40625 z"
         fill-rule="nonzero"
         id="path715" />
      <path
         fill="#000000"
         d="m 581.94617,266.5049 0.40625,-1.875 h 1.625 l -0.39062,1.875 z m -2.39062,11.48438 2.01562,-9.67188 h 1.65625 l -2.03125,9.67188 z m 4.20733,0 2.01563,-9.67188 h 1.5 l -0.35938,1.6875 q 0.96875,-1 1.8125,-1.45312 0.85938,-0.45313 1.73438,-0.45313 1.1875,0 1.84375,0.64063 0.67187,0.625 0.67187,1.70312 0,0.53125 -0.23437,1.6875 l -1.23438,5.85938 h -1.64062 l 1.28125,-6.125 q 0.1875,-0.89063 0.1875,-1.32813 0,-0.48437 -0.32813,-0.78125 -0.32812,-0.29687 -0.95312,-0.29687 -1.28125,0 -2.26563,0.90625 -0.98437,0.90625 -1.45312,3.125 l -0.9375,4.5 z m 17.04755,-3.53125 1.65625,0.17187 q -0.625,1.8125 -1.76563,2.70313 -1.14062,0.875 -2.60937,0.875 -1.57813,0 -2.5625,-1.01563 -0.96875,-1.03125 -0.96875,-2.85937 0,-1.57813 0.625,-3.10938 0.64062,-1.53125 1.79687,-2.32812 1.17188,-0.79688 2.6875,-0.79688 1.54688,0 2.45313,0.875 0.92187,0.875 0.92187,2.32813 l -1.625,0.10937 q -0.0156,-0.92187 -0.54687,-1.4375 -0.51563,-0.51562 -1.35938,-0.51562 -1,0 -1.73437,0.625 -0.71875,0.625 -1.14063,1.90625 -0.40625,1.28125 -0.40625,2.46875 0,1.23437 0.54688,1.85937 0.54687,0.60938 1.34375,0.60938 0.79687,0 1.53125,-0.60938 0.73437,-0.60937 1.15625,-1.85937 z m 2.51562,3.53125 2.79688,-13.35938 h 1.64062 l -2.78125,13.35938 z m 10.87921,-1.75 q -1.73437,1.96875 -3.5625,1.96875 -1.10937,0 -1.79687,-0.64063 -0.6875,-0.64062 -0.6875,-1.57812 0,-0.60938 0.29687,-2.09375 l 1.17188,-5.57813 h 1.65625 l -1.29688,6.1875 q -0.17187,0.76563 -0.17187,1.20313 0,0.54687 0.32812,0.85937 0.34375,0.29688 0.98438,0.29688 0.70312,0 1.35937,-0.32813 0.65625,-0.34375 1.125,-0.92187 0.48438,-0.57813 0.79688,-1.35938 0.1875,-0.5 0.45312,-1.76562 l 0.875,-4.17188 h 1.65625 l -2.03125,9.67188 h -1.51562 z m 3.93824,-1.5625 1.64062,-0.0937 q 0,0.70312 0.21875,1.21875 0.21875,0.5 0.79688,0.8125 0.59375,0.3125 1.375,0.3125 1.09375,0 1.64062,-0.4375 0.54688,-0.4375 0.54688,-1.01563 0,-0.4375 -0.32813,-0.8125 -0.32812,-0.39062 -1.64062,-0.95312 -1.3125,-0.5625 -1.67188,-0.78125 -0.60937,-0.375 -0.92187,-0.875 -0.3125,-0.51563 -0.3125,-1.17188 0,-1.14062 0.90625,-1.95312 0.92187,-0.82813 2.5625,-0.82813 1.82812,0 2.76562,0.84375 0.95313,0.84375 1,2.21875 l -1.60937,0.10938 q -0.0469,-0.875 -0.625,-1.39063 -0.57813,-0.51562 -1.65625,-0.51562 -0.84375,0 -1.32813,0.40625 -0.46875,0.39062 -0.46875,0.84375 0,0.45312 0.40625,0.79687 0.28125,0.23438 1.42188,0.73438 1.89062,0.8125 2.375,1.28125 0.78125,0.76562 0.78125,1.84375 0,0.71875 -0.4375,1.42187 -0.4375,0.6875 -1.34375,1.10938 -0.90625,0.40625 -2.14063,0.40625 -1.67187,0 -2.84375,-0.82813 -1.1875,-0.82812 -1.10937,-2.70312 z m 11.5,-8.17188 0.40625,-1.875 h 1.625 l -0.39063,1.875 z m -2.39063,11.48438 2.01563,-9.67188 h 1.65625 l -2.03125,9.67188 z m 4.48859,-3.67188 q 0,-2.82812 1.67187,-4.6875 1.375,-1.53125 3.60938,-1.53125 1.75,0 2.8125,1.09375 1.07812,1.09375 1.07812,2.95313 0,1.65625 -0.67187,3.09375 -0.67188,1.4375 -1.92188,2.20312 -1.25,0.76563 -2.625,0.76563 -1.125,0 -2.04687,-0.48438 -0.92188,-0.48437 -1.42188,-1.35937 -0.48437,-0.89063 -0.48437,-2.04688 z m 1.65625,-0.15625 q 0,1.35938 0.65625,2.0625 0.65625,0.70313 1.65625,0.70313 0.53125,0 1.04687,-0.20313 0.53125,-0.21875 0.96875,-0.65625 0.45313,-0.4375 0.76563,-1 0.3125,-0.5625 0.5,-1.20312 0.28125,-0.90625 0.28125,-1.73438 0,-1.3125 -0.65625,-2.03125 -0.65625,-0.73437 -1.65625,-0.73437 -0.78125,0 -1.42188,0.375 -0.625,0.375 -1.14062,1.09375 -0.51563,0.70312 -0.76563,1.64062 -0.23437,0.9375 -0.23437,1.6875 z m 8.43817,3.82813 2.01562,-9.67188 h 1.5 l -0.35937,1.6875 q 0.96875,-1 1.8125,-1.45312 0.85937,-0.45313 1.73437,-0.45313 1.1875,0 1.84375,0.64063 0.67188,0.625 0.67188,1.70312 0,0.53125 -0.23438,1.6875 l -1.23437,5.85938 h -1.64063 l 1.28125,-6.125 q 0.1875,-0.89063 0.1875,-1.32813 0,-0.48437 -0.32812,-0.78125 -0.32813,-0.29687 -0.95313,-0.29687 -1.28125,0 -2.26562,0.90625 -0.98438,0.90625 -1.45313,3.125 l -0.9375,4.5 z"
         fill-rule="nonzero"
         id="path717" />
      <path
         fill="#000000"
         fill-opacity="0"
         d="m 682.3543,114.29921 h 185.98425 v 42.01575 H 682.3543 Z"
         fill-rule="evenodd"
         id="path719" />
      <path
         fill="#000000"
         d="m 692.4168,141.21921 2.79687,-13.35937 h 1.78125 l -2.79687,13.35937 z m 4.74585,0 2.01562,-9.67188 h 1.5 l -0.35937,1.6875 q 0.96875,-1 1.8125,-1.45312 0.85937,-0.45313 1.73437,-0.45313 1.1875,0 1.84375,0.64063 0.67188,0.625 0.67188,1.70312 0,0.53125 -0.23438,1.6875 l -1.23437,5.85938 h -1.64063 l 1.28125,-6.125 q 0.1875,-0.89063 0.1875,-1.32813 0,-0.48437 -0.32812,-0.78125 -0.32813,-0.29687 -0.95313,-0.29687 -1.28125,0 -2.26562,0.90625 -0.98438,0.90625 -1.45313,3.125 l -0.9375,4.5 z m 17.04755,-3.53125 1.65625,0.17187 q -0.625,1.8125 -1.76563,2.70313 -1.14062,0.875 -2.60937,0.875 -1.57813,0 -2.5625,-1.01563 -0.96875,-1.03125 -0.96875,-2.85937 0,-1.57813 0.625,-3.10938 0.64062,-1.53125 1.79687,-2.32812 1.17188,-0.79688 2.6875,-0.79688 1.54688,0 2.45313,0.875 0.92187,0.875 0.92187,2.32813 l -1.625,0.10937 q -0.0156,-0.92187 -0.54687,-1.4375 -0.51563,-0.51562 -1.35938,-0.51562 -1,0 -1.73437,0.625 -0.71875,0.625 -1.14063,1.90625 -0.40625,1.28125 -0.40625,2.46875 0,1.23437 0.54688,1.85937 0.54687,0.60938 1.34375,0.60938 0.79687,0 1.53125,-0.60938 0.73437,-0.60937 1.15625,-1.85937 z m 2.65625,3.53125 2.01562,-9.67188 h 1.45313 l -0.40625,1.96875 q 0.75,-1.10937 1.45312,-1.64062 0.71875,-0.54688 1.46875,-0.54688 0.5,0 1.21875,0.35938 l -0.67187,1.53125 q -0.4375,-0.3125 -0.9375,-0.3125 -0.875,0 -1.78125,0.96875 -0.90625,0.95312 -1.4375,3.46875 l -0.8125,3.875 z m 13.30645,-3.28125 1.60938,0.15625 q -0.34375,1.1875 -1.59375,2.26562 -1.23438,1.07813 -2.96875,1.07813 -1.0625,0 -1.96875,-0.5 -0.89063,-0.5 -1.35938,-1.4375 -0.46875,-0.95313 -0.46875,-2.15625 0,-1.59375 0.73438,-3.07813 0.73437,-1.48437 1.89062,-2.20312 1.17188,-0.73438 2.53125,-0.73438 1.73438,0 2.76563,1.07813 1.03125,1.0625 1.03125,2.92187 0,0.71875 -0.125,1.46875 h -7.125 q -0.0469,0.28125 -0.0469,0.5 0,1.35938 0.625,2.07813 0.625,0.71875 1.53125,0.71875 0.84375,0 1.65625,-0.54688 0.82813,-0.5625 1.28125,-1.60937 z m -4.78125,-2.40625 h 5.42188 q 0.0156,-0.25 0.0156,-0.35938 0,-1.23437 -0.625,-1.89062 -0.625,-0.67188 -1.59375,-0.67188 -1.0625,0 -1.9375,0.73438 -0.85937,0.71875 -1.28125,2.1875 z m 14.57886,4.48437 q -0.85937,0.73438 -1.65625,1.07813 -0.78125,0.34375 -1.6875,0.34375 -1.34375,0 -2.17187,-0.78125 -0.8125,-0.79688 -0.8125,-2.03125 0,-0.79688 0.375,-1.42188 0.375,-0.625 0.98437,-1 0.60938,-0.39062 1.48438,-0.54687 0.5625,-0.10938 2.10937,-0.17188 1.5625,-0.0625 2.23438,-0.32812 0.1875,-0.67188 0.1875,-1.125 0,-0.57813 -0.42188,-0.90625 -0.5625,-0.45313 -1.67187,-0.45313 -1.03125,0 -1.70313,0.46875 -0.65625,0.45313 -0.95312,1.29688 l -1.67188,-0.14063 q 0.51563,-1.4375 1.60938,-2.20312 1.10937,-0.76563 2.79687,-0.76563 1.79688,0 2.84375,0.85938 0.79688,0.625 0.79688,1.65625 0,0.76562 -0.21875,1.79687 l -0.53125,2.40625 q -0.26563,1.14063 -0.26563,1.85938 0,0.45312 0.20313,1.3125 h -1.67188 q -0.125,-0.46875 -0.1875,-1.20313 z m 0.60938,-3.70312 q -0.34375,0.14062 -0.75,0.21875 -0.39063,0.0625 -1.3125,0.15625 -1.4375,0.125 -2.03125,0.32812 -0.59375,0.1875 -0.90625,0.625 -0.29688,0.42188 -0.29688,0.9375 0,0.6875 0.48438,1.14063 0.48437,0.4375 1.35937,0.4375 0.82813,0 1.57813,-0.42188 0.75,-0.4375 1.1875,-1.20312 0.4375,-0.78125 0.6875,-2.21875 z m 3.40692,1.59375 1.64062,-0.0937 q 0,0.70312 0.21875,1.21875 0.21875,0.5 0.79688,0.8125 0.59375,0.3125 1.375,0.3125 1.09375,0 1.64062,-0.4375 0.54688,-0.4375 0.54688,-1.01563 0,-0.4375 -0.32813,-0.8125 -0.32812,-0.39062 -1.64062,-0.95312 -1.3125,-0.5625 -1.67188,-0.78125 -0.60937,-0.375 -0.92187,-0.875 -0.3125,-0.51563 -0.3125,-1.17188 0,-1.14062 0.90625,-1.95312 0.92187,-0.82813 2.5625,-0.82813 1.82812,0 2.76562,0.84375 0.95313,0.84375 1,2.21875 l -1.60937,0.10938 q -0.0469,-0.875 -0.625,-1.39063 -0.57813,-0.51562 -1.65625,-0.51562 -0.84375,0 -1.32813,0.40625 -0.46875,0.39062 -0.46875,0.84375 0,0.45312 0.40625,0.79687 0.28125,0.23438 1.42188,0.73438 1.89062,0.8125 2.375,1.28125 0.78125,0.76562 0.78125,1.84375 0,0.71875 -0.4375,1.42187 -0.4375,0.6875 -1.34375,1.10938 -0.90625,0.40625 -2.14063,0.40625 -1.67187,0 -2.84375,-0.82813 -1.1875,-0.82812 -1.10937,-2.70312 z m 11.5,-8.17188 0.40625,-1.87499 h 1.625 l -0.39063,1.87499 z m -2.39063,11.48438 2.01563,-9.67188 h 1.65625 l -2.03125,9.67188 z m 4.20734,0 2.01562,-9.67188 h 1.5 l -0.35937,1.6875 q 0.96875,-1 1.8125,-1.45312 0.85937,-0.45313 1.73437,-0.45313 1.1875,0 1.84375,0.64063 0.67188,0.625 0.67188,1.70312 0,0.53125 -0.23438,1.6875 l -1.23437,5.85938 h -1.64063 l 1.28125,-6.125 q 0.1875,-0.89063 0.1875,-1.32813 0,-0.48437 -0.32812,-0.78125 -0.32813,-0.29687 -0.95313,-0.29687 -1.28125,0 -2.26562,0.90625 -0.98438,0.90625 -1.45313,3.125 l -0.9375,4.5 z m 10.28198,0.875 1.67187,0.15625 q -0.0312,0.5625 0.125,0.84375 0.15625,0.28125 0.5,0.4375 0.4375,0.20312 1.15625,0.20312 1.48438,0 2.14063,-0.78125 0.4375,-0.51562 0.79687,-2.25 l 0.17188,-0.78125 q -1.29688,1.29688 -2.73438,1.29688 -1.46875,0 -2.46875,-1.07813 -0.98437,-1.07812 -0.98437,-3.0625 0,-1.625 0.78125,-2.98437 0.78125,-1.375 1.85937,-2.0625 1.07813,-0.70313 2.20313,-0.70313 1.90625,0 2.9375,1.79688 l 0.32812,-1.57813 h 1.51563 l -1.95313,9.32813 q -0.3125,1.54687 -0.84375,2.40625 -0.51562,0.85937 -1.4375,1.32812 -0.92187,0.48438 -2.14062,0.48438 -1.15625,0 -2,-0.3125 -0.84375,-0.29688 -1.26563,-0.875 -0.40625,-0.57813 -0.40625,-1.32813 0,-0.21875 0.0469,-0.48437 z m 2.0625,-5.15625 q 0,1 0.1875,1.5 0.26562,0.6875 0.76562,1.0625 0.51563,0.375 1.14063,0.375 0.8125,0 1.60937,-0.5625 0.79688,-0.57813 1.29688,-1.76563 0.5,-1.20312 0.5,-2.28125 0,-1.20312 -0.67188,-1.90625 -0.65625,-0.70312 -1.625,-0.70312 -0.60937,0 -1.17187,0.32812 -0.5625,0.3125 -1.04688,0.98438 -0.48437,0.65625 -0.73437,1.57812 -0.25,0.92188 -0.25,1.39063 z"
         fill-rule="nonzero"
         id="path721" />
      <path
         fill="#000000"
         d="m 783.84766,129.75046 v -1.89062 h 1.64063 v 1.89062 z m 0,11.46875 v -9.67188 h 1.64063 v 9.67188 z m 4.14484,0 v -9.67188 h 1.46875 v 1.375 q 1.0625,-1.59375 3.07812,-1.59375 0.875,0 1.60938,0.3125 0.73437,0.3125 1.09375,0.82813 0.375,0.5 0.51562,1.20312 0.0937,0.45313 0.0937,1.59375 v 5.95313 h -1.64062 v -5.89063 q 0,-1 -0.20313,-1.48437 -0.1875,-0.5 -0.67187,-0.79688 -0.48438,-0.29687 -1.14063,-0.29687 -1.04687,0 -1.8125,0.67187 -0.75,0.65625 -0.75,2.51563 v 5.28125 z m 16.68817,-3.54688 1.60937,0.21875 q -0.26562,1.65625 -1.35937,2.60938 -1.07813,0.9375 -2.67188,0.9375 -1.98437,0 -3.1875,-1.29688 -1.20312,-1.29687 -1.20312,-3.71875 0,-1.57812 0.51562,-2.75 0.51563,-1.17187 1.57813,-1.75 1.0625,-0.59375 2.3125,-0.59375 1.57812,0 2.57812,0.79688 1,0.79687 1.28125,2.26562 l -1.59375,0.23438 q -0.23437,-0.96875 -0.8125,-1.45313 -0.57812,-0.5 -1.39062,-0.5 -1.23438,0 -2.01563,0.89063 -0.78125,0.89062 -0.78125,2.8125 0,1.95312 0.75,2.84375 0.75,0.875 1.95313,0.875 0.96875,0 1.60937,-0.59375 0.65625,-0.59375 0.82813,-1.82813 z m 2.96875,3.54688 v -13.35937 h 1.64062 v 13.35937 z m 10.51983,0 v -1.42188 q -1.125,1.64063 -3.0625,1.64063 -0.85937,0 -1.60937,-0.32813 -0.73438,-0.32812 -1.09375,-0.82812 -0.35938,-0.5 -0.5,-1.21875 -0.10938,-0.46875 -0.10938,-1.53125 v -5.98438 h 1.64063 v 5.35938 q 0,1.28125 0.10937,1.73437 0.15625,0.64063 0.65625,1.01563 0.5,0.375 1.23438,0.375 0.73437,0 1.375,-0.375 0.65625,-0.39063 0.92187,-1.03125 0.26563,-0.65625 0.26563,-1.89063 v -5.1875 h 1.64062 v 9.67188 z m 3.39136,-2.89063 1.625,-0.25 q 0.125,0.96875 0.75,1.5 0.625,0.51563 1.75,0.51563 1.125,0 1.67188,-0.45313 0.54687,-0.46875 0.54687,-1.09375 0,-0.54687 -0.48437,-0.875 -0.32813,-0.21875 -1.67188,-0.54687 -1.8125,-0.46875 -2.51562,-0.79688 -0.6875,-0.32812 -1.04688,-0.90625 -0.35937,-0.59375 -0.35937,-1.3125 0,-0.64062 0.29687,-1.1875 0.29688,-0.5625 0.8125,-0.92187 0.375,-0.28125 1.03125,-0.46875 0.67188,-0.20313 1.42188,-0.20313 1.14062,0 2,0.32813 0.85937,0.32812 1.26562,0.89062 0.42188,0.5625 0.57813,1.5 l -1.60938,0.21875 q -0.10937,-0.75 -0.64062,-1.17187 -0.51563,-0.42188 -1.46875,-0.42188 -1.14063,0 -1.625,0.375 -0.46875,0.375 -0.46875,0.875 0,0.3125 0.1875,0.57813 0.20312,0.26562 0.64062,0.4375 0.23438,0.0937 1.4375,0.42187 1.75,0.45313 2.4375,0.75 0.6875,0.29688 1.07813,0.85938 0.39062,0.5625 0.39062,1.40625 0,0.82812 -0.48437,1.54687 -0.46875,0.71875 -1.375,1.125 -0.90625,0.39063 -2.04688,0.39063 -1.875,0 -2.875,-0.78125 -0.98437,-0.78125 -1.25,-2.32813 z m 9.98438,-8.57812 v -1.89062 h 1.64062 v 1.89062 z m 0,11.46875 v -9.67188 h 1.64062 v 9.67188 z m 3.53546,-4.84375 q 0,-2.6875 1.48437,-3.96875 1.25,-1.07813 3.04688,-1.07813 2,0 3.26562,1.3125 1.26563,1.29688 1.26563,3.60938 0,1.85937 -0.5625,2.9375 -0.5625,1.0625 -1.64063,1.65625 -1.0625,0.59375 -2.32812,0.59375 -2.03125,0 -3.28125,-1.29688 -1.25,-1.3125 -1.25,-3.76562 z m 1.6875,0 q 0,1.85937 0.79687,2.79687 0.8125,0.92188 2.04688,0.92188 1.21875,0 2.03125,-0.92188 0.8125,-0.9375 0.8125,-2.84375 0,-1.79687 -0.8125,-2.71875 -0.8125,-0.92187 -2.03125,-0.92187 -1.23438,0 -2.04688,0.92187 -0.79687,0.90625 -0.79687,2.76563 z m 9.29754,4.84375 v -9.67188 h 1.46875 v 1.375 q 1.0625,-1.59375 3.07813,-1.59375 0.875,0 1.60937,0.3125 0.73438,0.3125 1.09375,0.82813 0.375,0.5 0.51563,1.20312 0.0937,0.45313 0.0937,1.59375 v 5.95313 h -1.64063 v -5.89063 q 0,-1 -0.20312,-1.48437 -0.1875,-0.5 -0.67188,-0.79688 -0.48437,-0.29687 -1.14062,-0.29687 -1.04688,0 -1.8125,0.67187 -0.75,0.65625 -0.75,2.51563 v 5.28125 z"
         fill-rule="nonzero"
         id="path723" />
    </g>
  </g>
</svg>
